<svg width="31" height="30" viewBox="0 0 31 30" fill="none" xmlns="http://www.w3.org/2000/svg">
<path d="M27.6875 0.703111H3.3125C2.75945 0.697483 2.22675 0.911481 1.83129 1.29815C1.43584 1.68482 1.20992 2.21257 1.20312 2.76561V27.239C1.21115 27.7913 1.43761 28.3178 1.83293 28.7035C2.22825 29.0891 2.76025 29.3025 3.3125 29.2969H27.6875C28.2406 29.3012 28.7729 29.0865 29.1682 28.6996C29.5634 28.3127 29.7895 27.7851 29.7969 27.232V2.75858C29.787 2.20716 29.5599 1.68192 29.1649 1.29703C28.7699 0.912137 28.239 0.6987 27.6875 0.703111Z" fill="#0076B2"/>
<path d="M5.43595 11.4211H9.68048V25.0781H5.43595V11.4211ZM7.55939 4.62421C8.04622 4.62421 8.5221 4.7686 8.92685 5.03911C9.3316 5.30963 9.64703 5.69411 9.83322 6.14393C10.0194 6.59374 10.068 7.08867 9.97287 7.56611C9.87772 8.04355 9.64311 8.48204 9.2987 8.82612C8.9543 9.17019 8.51558 9.40439 8.03805 9.49908C7.56053 9.59377 7.06564 9.5447 6.616 9.35808C6.16637 9.17146 5.78218 8.85567 5.51205 8.45066C5.24192 8.04565 5.09799 7.56963 5.09845 7.0828C5.09907 6.43053 5.35862 5.80518 5.82007 5.34417C6.28152 4.88316 6.90711 4.62421 7.55939 4.62421ZM12.343 11.4211H16.4117V13.2961H16.468C17.0352 12.2226 18.418 11.0906 20.4828 11.0906C24.7813 11.0812 25.5781 13.9101 25.5781 17.5781V25.0781H21.3336V18.4336C21.3336 16.8516 21.3055 14.8148 19.1281 14.8148C16.9508 14.8148 16.5805 16.5398 16.5805 18.3305V25.0781H12.343V11.4211Z" fill="white"/>
</svg>
